<svg class="svg-icon" style="width: 1em; height: 1em;vertical-align: middle;fill: currentColor;overflow: hidden;" viewBox="0 0 1024 1024" version="1.1" xmlns="http://www.w3.org/2000/svg"><path d="M430.20136297 657.63555555h-61.77374815l-0.3640889-127.06702222h62.13783705zM430.20136297 418.06506667h-61.77374815l-0.3640889-127.06702222h62.13783705zM430.20136297 897.20604445h-61.77374815l-0.3640889-127.1883852h62.13783705z" fill="#FF534A" /><path d="M933.37220741 925.48361482H192.57268148c-45.99656297 0-83.37635555-37.37979259-83.37635556-83.37635557V666.13096297h30.94755556c39.68568889 0 72.0896-32.28254815 72.0896-72.0896 0-39.68568889-32.28254815-72.0896-72.0896-72.0896h-30.94755556v-175.9762963c0-45.99656297 37.37979259-83.37635555 83.37635556-83.37635556h740.92088889c45.99656297 0 83.37635555 37.37979259 83.37635555 83.37635556v175.9762963h-30.94755555c-39.68568889 0-72.0896 32.28254815-72.0896 72.0896 0 39.68568889 32.28254815 72.0896 72.0896 72.0896H1016.86992592v175.97629628c-0.12136297 45.99656297-37.50115555 83.37635555-83.49771851 83.37635557zM170.97007408 724.38518518v117.72207407c0 11.89357037 9.70903703 21.48124445 21.48124444 21.48124445h740.92088889c11.89357037 0 21.48124445-9.70903703 21.48124444-21.48124445v-117.72207407c-58.9824-13.95674075-102.91579259-67.11371852-102.9157926-130.34382221s44.05475555-116.26571852 102.9157926-130.34382222v-117.72207408c0-11.89357037-9.70903703-21.48124445-21.48124444-21.48124445H192.57268148c-11.89357037 0-21.48124445 9.70903703-21.48124445 21.48124445v117.72207408c58.9824 13.95674075 102.91579259 67.11371852 102.9157926 130.34382222S229.95247408 710.30708148 170.97007408 724.38518518z" fill="#FF534A" /></svg>