<svg class="svg-icon" style="width: 1.3056640625em; height: 1em;vertical-align: middle;fill: currentColor;overflow: hidden;" viewBox="0 0 1337 1024" version="1.1" xmlns="http://www.w3.org/2000/svg"><path d="M1251.610122 477.016816A118.240653 118.240653 0 0 1 1337.469388 590.764408v157.539265c0 65.149388-52.736 118.157061-117.551021 118.157062H1180.734694C1180.734694 953.323102 1110.42351 1024 1024 1024H828.081633c-21.639837 0-39.183673-17.637878-39.183674-39.392653 0-21.733878 17.543837-39.371755 39.183674-39.371755h60.269714A157.121306 157.121306 0 0 1 867.265306 866.460735H470.204082C470.204082 953.323102 399.892898 1024 313.469388 1024H117.55102c-21.639837 0-39.183673-17.637878-39.183673-39.392653 0-21.733878 17.543837-39.371755 39.183673-39.371755h60.269715A157.121306 157.121306 0 0 1 156.734694 866.460735h-39.183674C52.736 866.460735 0 813.453061 0 748.303673V118.157061C0 53.007673 52.736 0 117.55102 0h632.163266C814.529306 0 867.265306 53.007673 867.265306 118.157061v39.382204h213.09649c54.042122 0 100.937143 36.801306 114.040163 89.495511l57.208163 229.98204zM313.469388 945.235592c43.21698 0 78.367347-35.338449 78.367347-78.774857s-35.150367-78.764408-78.367347-78.764408-78.367347 35.328-78.367347 78.764408 35.150367 78.774857 78.367347 78.774857z m117.55102-551.392653c64.81502 0 117.55102 53.007673 117.551021 118.157061 0 49.152-30.260245 94.228898-78.367347 111.40702v46.132245c0 21.754776-17.543837 39.392653-39.183674 39.392653-21.639837 0-39.183673-17.637878-39.183673-39.392653v-45.881469c-20.354612-6.875429-40.019592-19.04849-57.709715-36.268408a39.52849 39.52849 0 0 1-0.877714-55.693061 39.037388 39.037388 0 0 1 55.410939-0.877715c19.069388 18.578286 40.071837 24.952163 57.615673 17.481143A39.350857 39.350857 0 0 0 470.204082 512c0-21.71298-17.575184-39.392653-39.183674-39.392653-64.81502 0-117.55102-52.997224-117.55102-118.146612 0-49.486367 31.075265-94.113959 77.322449-111.041306l1.044898-0.355266v-46.142694c0-21.744327 17.543837-39.392653 39.183673-39.392653 21.639837 0 39.183673 17.648327 39.183674 39.392653v45.745633c25.850776 8.756245 50.510367 26.174694 71.690449 51.523918a39.52849 39.52849 0 0 1-4.806531 55.484082 39.047837 39.047837 0 0 1-55.201959-4.81698c-20.720327-24.795429-44.146939-34.795102-64.282123-27.428571a39.518041 39.518041 0 0 0-25.767183 37.031184c0 21.71298 17.575184 39.392653 39.183673 39.392653zM788.897959 787.696327V118.157061c0-21.723429-17.575184-39.392653-39.183673-39.392653h-632.163266c-21.60849 0-39.183673 17.669224-39.183673 39.392653v630.146612c0 21.723429 17.575184 39.392653 39.183673 39.392654h60.269715c27.146449-47.041306 77.761306-78.774857 135.648653-78.774858 57.887347 0 108.502204 31.733551 135.648653 78.774858H788.897959z m78.367347-551.392654v236.314123h101.323755l66.894368-67.239184a39.037388 39.037388 0 0 1 55.410938 0 39.52849 39.52849 0 0 1 0 55.693061l-11.483428 11.546123h90.320979l-51.356734-206.471837a39.162776 39.162776 0 0 0-38.013388-29.842286H867.265306z m156.734694 708.931919c43.21698 0 78.367347-35.338449 78.367347-78.774857s-35.150367-78.764408-78.367347-78.764408-78.367347 35.328-78.367347 78.764408 35.150367 78.774857 78.367347 78.774857z m235.102041-315.078531v-39.392653c0-21.71298-17.575184-39.382204-39.183674-39.382204H867.265306v236.314123h21.086041c27.146449-47.041306 77.761306-78.774857 135.648653-78.774858 57.887347 0 108.502204 31.733551 135.648653 78.774858h60.269714c21.60849 0 39.183673-17.669224 39.183674-39.392654v-39.382204h-39.183674c-21.639837 0-39.183673-17.627429-39.183673-39.392653 0-21.733878 17.543837-39.371755 39.183673-39.371755h39.183674z" fill="#20A0FF" /></svg>