<svg class="svg-icon" style="width: 1.099609375em;height: 1em;vertical-align: middle;fill: currentColor;overflow: hidden;" viewBox="0 0 1126 1024" version="1.1" xmlns="http://www.w3.org/2000/svg"><path d="M364.672 573.0048v64H176.5888v-64z" fill="#5AC2EE" /><path d="M323.5328 490.0608v188.0832h-64v-188.0832zM536.3456 34.432a32 32 0 0 1 44.032-10.496c13.6192 8.3968 33.024 22.784 52.608 42.24 63.1808 62.7968 81.3824 135.6288 17.0752 201.7792l-11.776 11.52-22.4512 21.2992a214.528 214.528 0 0 0-9.8816 10.24c-15.9488 17.792-21.1968 33.8176-21.1968 74.5472a32 32 0 1 1-64 0c0-55.552 10.24-86.784 37.5296-117.248l5.7344-6.1952c3.072-3.1744 6.4-6.5024 10.4192-10.3424l23.552-22.3744 6.1696-6.0416c34.0736-35.072 25.216-70.528-16.3072-111.7952a264.0384 264.0384 0 0 0-28.672-24.5504l-5.2992-3.84a145.7664 145.7664 0 0 0-7.04-4.7104 32 32 0 0 1-10.496-44.032z" fill="#5AC2EE" /><path d="M858.4192 417.5616c27.1872 0 49.6896 2.944 65.7408 8.1408 11.5456 3.712 17.28 7.7056 18.0736 9.3184l-0.3584-0.7168c0.5632 0.8192 10.88 19.6352 16.9728 31.8208l1.1776 2.3552c11.264 22.9376 22.2976 49.2288 32.6912 79.3088 35.072 101.632 54.4256 221.2864 49.8176 358.7072-1.408 15.6928-10.368 32.2048-29.0304 32.2048-7.7568 0-17.408-1.792-28.672-5.6064l-5.7344-2.048c-7.5008-2.6112-38.2464-24.576-75.9808-54.4512l-38.912-31.3856a1240.064 1240.064 0 0 1-27.392-22.912l-0.6912-0.64c-8.7808-8.448-34.5856-28.7232-58.112-44.288-39.0912-25.9328-73.0112-41.4208-102.4-41.4208h-224.768c-29.44 0-63.36 15.488-102.4512 41.3952l-9.472 6.4512c-19.0208 13.2096-37.8368 28.0064-46.6432 35.9936l-7.3728 6.528c-9.6512 8.192-30.0032 24.9856-49.408 40.5504l-22.3232 17.6896c-33.024 25.7536-58.9568 44.0832-64.9728 46.1568-14.592 5.5296-26.24 7.9872-35.3024 7.9872-18.6624 0-27.5968-16.4864-29.1584-33.9712-4.48-135.6544 14.848-255.3088 49.9456-356.9664a710.2464 710.2464 0 0 1 27.904-69.248l4.7872-10.0608c6.6048-13.44 20.6592-38.9376 17.4848-32.8192 1.1008-2.2272 6.8352-6.2208 18.3808-9.9328 16.0512-5.1968 38.5536-8.1408 65.7408-8.1408 14.6176 0 29.5424 0.768 43.8528 2.048l9.1904 0.896c4.096 0.4352 7.3984 0.8448 10.0096 1.2032 22.6816 1.3056 38.656 10.3168 51.3024 25.216 7.8848 9.2928 13.0816 19.3536 14.1824 22.8352l12.032 37.0688h309.3248l11.9552-36.864c0.8448-2.9952 6.5024-13.9008 14.2592-23.04 12.6464-14.8992 28.6208-23.9104 49.5616-25.088l15.5392-1.7408a513.6896 513.6896 0 0 1 49.2288-2.5344zM128.768 403.0208l-5.4272 9.728c-4.096 7.5008-10.3168 19.2-14.3872 27.52a757.9648 757.9648 0 0 0-35.7376 86.6304C35.6352 635.6992 15.0272 763.136 19.8912 908.6464c1.2288 14.4128 5.0944 30.464 13.9008 46.6944 15.616 28.8768 42.3936 47.36 79.104 47.36 17.5104 0 36.608-4.0448 57.088-11.8016 24.1152-8.32 124.16-86.7584 158.464-117.4272l6.144-5.632c5.9136-5.6832 28.672-23.5776 49.152-37.1456 29.0816-19.2768 54.2208-30.7456 67.072-30.7456h224.768c12.8512 0 37.9904 11.4688 67.072 30.72l8.2688 5.632c17.9712 12.5184 35.7888 26.624 40.8576 31.5136 25.856 24.832 138.8288 114.176 165.504 123.392 19.6352 7.424 38.7072 11.52 56.2176 11.52 36.7104 0 63.488-18.5088 79.104-47.36a117.4016 117.4016 0 0 0 13.7984-44.9792c4.9664-147.2512-15.616-274.688-53.1968-383.488a758.0672 758.0672 0 0 0-35.7376-86.6304l-9.7024-18.816-8.3712-15.2064c-17.5872-35.9168-69.4272-52.6848-140.9792-52.6848l-5.7856 0.0512-12.6464 0.3072c-16.8448 0.5888-33.1776 1.8944-44.1088 3.1488l-8.0384 1.0496 2.2016-0.1792c-39.7568 2.2528-71.3984 20.096-94.72 47.5392l-3.712 4.5568c-8.448 10.752-15.1552 22.272-19.2768 31.488l-0.5888 1.3056h-217.0624l-1.792-3.9936a157.696 157.696 0 0 0-21.76-33.3312c-23.3472-27.4688-54.9888-45.312-94.7456-47.5648l-4.2752-0.5888a562.7136 562.7136 0 0 0-64.128-3.7888c-68.992 0-119.6544 15.616-139.2384 49.4592z" fill="#5AC2EE" /><path d="M826.1888 458.752c-25.0112 0-48.2816 17.4848-48.2816 44.2112 0 26.752 23.296 44.2112 48.2816 44.2112 24.9856 0 48.2816-17.4592 48.2816-44.2112 0-26.7264-23.296-44.2112-48.2816-44.2112z m0 24.4224c6.9888 0 15.7184 6.5536 15.7184 19.7888 0 13.2608-8.704 19.7888-15.7184 19.7888-7.0144 0-15.7184-6.528-15.7184-19.7888 0-13.2352 8.704-19.7888 15.7184-19.7888zM826.1888 608.256c-25.0112 0-48.2816 17.4592-48.2816 44.1856 0 26.752 23.296 44.2112 48.2816 44.2112 24.9856 0 48.2816-17.4592 48.2816-44.2112 0-26.7264-23.296-44.2112-48.2816-44.2112z m0 24.3968c6.9888 0 15.7184 6.528 15.7184 19.7888s-8.704 19.7888-15.7184 19.7888c-7.0144 0-15.7184-6.528-15.7184-19.7888s8.704-19.7888 15.7184-19.7888zM910.9504 537.7536c-26.752 0-44.2112 23.296-44.2112 48.256 0 25.0112 17.4592 48.2816 44.2112 48.2816s44.2112-23.296 44.2112-48.2816c0-24.9856-17.4592-48.256-44.2112-48.256z m0 32.5376c13.2608 0 19.7888 8.704 19.7888 15.7184 0 7.0144-6.528 15.744-19.7888 15.744s-19.7888-8.704-19.7888-15.744c0-6.9888 6.528-15.7184 19.7888-15.7184z" fill="#5AC2EE" /><path d="M761.4464 537.7536c-26.7264 0-44.1856 23.296-44.1856 48.256 0 25.0112 17.4592 48.2816 44.1856 48.2816 26.752 0 44.2112-23.296 44.2112-48.2816 0-24.9856-17.4592-48.256-44.2112-48.256z m0 32.5376c13.2608 0 19.8144 8.704 19.8144 15.7184 0 7.0144-6.5536 15.744-19.8144 15.744-13.2352 0-19.7888-8.704-19.7888-15.744 0-6.9888 6.5536-15.7184 19.7888-15.7184z" fill="#5AC2EE" /></svg>